<svg width="1433" height="95" viewBox="0 0 1433 95" fill="none" xmlns="http://www.w3.org/2000/svg">
<path d="M66.9626 55.853C66.0295 61.3299 63.6562 65.5896 59.8427 68.6323C56.0292 71.6344 51.4652 73.1354 46.1507 73.1354C39.4568 73.1354 33.7366 70.7419 28.99 65.9547C24.2434 61.1676 21.8702 54.7983 21.8702 46.8467C21.8702 39.4226 24 33.2156 28.2598 28.2256C32.5601 23.2356 38.1586 20.7406 45.0553 20.7406C49.3962 20.7406 53.3111 21.6128 56.8 23.3573C62.8448 26.4811 66.1309 31.6739 66.6583 38.9358H59.295C58.9299 35.8931 57.652 33.2561 55.4613 31.0248C53.2705 28.7935 50.0859 27.6779 45.9073 27.6779C40.0248 27.6779 35.765 30.3149 33.128 35.5888C31.4241 38.9561 30.5722 42.587 30.5722 46.4816C30.5722 52.0396 31.9313 56.7253 34.6494 60.5388C37.4081 64.3117 41.3838 66.1981 46.5767 66.1981C49.9033 66.1981 52.6823 65.3259 54.9136 63.5814C57.1449 61.7964 58.7068 59.2203 59.5993 55.853H66.9626ZM44.9945 8.63077C34.406 8.63077 25.3794 12.4037 17.9147 19.9495C10.4906 27.4548 6.7785 36.5219 6.7785 47.151C6.7785 57.8612 10.4703 66.9892 17.8538 74.5351C25.3185 82.0809 34.3654 85.8538 44.9945 85.8538C55.6235 85.8538 64.6704 82.0809 72.1351 74.5351C79.5187 66.9892 83.2104 57.8612 83.2104 47.151C83.2104 36.5219 79.4984 27.4548 72.0743 19.9495C64.6501 12.4037 55.6235 8.63077 44.9945 8.63077ZM89.7218 47.151C89.7218 59.5245 85.3606 70.0928 76.6383 78.8557C67.9159 87.6186 57.368 92 44.9945 92C32.6209 92 22.073 87.6186 13.3507 78.8557C4.62834 70.0928 0.267176 59.5245 0.267176 47.151C0.267176 34.818 4.62834 24.3107 13.3507 15.6289C22.073 6.94715 32.6209 2.60627 44.9945 2.60627C57.368 2.60627 67.9159 6.94715 76.6383 15.6289C85.3606 24.3107 89.7218 34.818 89.7218 47.151ZM193.117 2.60627V13.2556H162.994V92H150.702V13.2556H120.579V2.60627H193.117ZM235.351 40.3963C240.463 40.3963 244.439 39.6863 247.279 38.2664C251.741 36.0351 253.973 32.0188 253.973 26.2174C253.973 20.3755 251.599 16.4403 246.853 14.4118C244.175 13.2759 240.199 12.7079 234.925 12.7079H213.322V40.3963H235.351ZM239.429 81.6549C246.853 81.6549 252.147 79.5048 255.311 75.2044C257.299 72.4863 258.293 69.2002 258.293 65.3462C258.293 58.8552 255.392 54.4331 249.591 52.0801C246.508 50.8225 242.431 50.1937 237.36 50.1937H213.322V81.6549H239.429ZM201.456 2.60627H239.855C250.321 2.60627 257.766 5.73008 262.188 11.9777C264.784 15.6695 266.082 19.9292 266.082 24.7569C266.082 30.396 264.48 35.0209 261.275 38.6315C259.612 40.5383 257.218 42.2827 254.094 43.8649C258.679 45.6094 262.107 47.577 264.378 49.7677C268.395 53.6623 270.403 59.0377 270.403 65.8939C270.403 71.6547 268.598 76.8678 264.987 81.5332C259.591 88.5111 251.011 92 239.246 92H201.456V2.60627ZM316.715 81.6549C320.812 81.6549 324.18 81.2289 326.817 80.377C331.523 78.7948 335.377 75.7521 338.379 71.249C340.772 67.6383 342.496 63.0135 343.551 57.3744C344.16 54.0072 344.464 50.8833 344.464 48.003C344.464 36.9276 342.253 28.327 337.831 22.2011C333.45 16.0752 326.37 13.0122 316.593 13.0122H295.112V81.6549H316.715ZM282.941 2.60627H319.149C331.441 2.60627 340.975 6.96744 347.75 15.6898C353.795 23.5601 356.817 33.6415 356.817 45.9339C356.817 55.4271 355.032 64.0074 351.462 71.6749C345.174 85.225 334.362 92 319.027 92H282.941V2.60627ZM415.302 2.60627V57.8612C415.302 64.3522 416.519 69.7479 418.954 74.0482C422.564 80.5393 428.65 83.7848 437.21 83.7848C447.474 83.7848 454.451 80.2756 458.143 73.2571C460.131 69.4437 461.125 64.3117 461.125 57.8612V2.60627H473.417V52.8104C473.417 63.8046 471.937 72.2632 468.975 78.1863C463.539 88.9776 453.275 94.3733 438.183 94.3733C423.092 94.3733 412.848 88.9776 407.452 78.1863C404.491 72.2632 403.01 63.8046 403.01 52.8104V2.60627H415.302ZM489.729 2.60627H501.838V81.3506H547.113V92H489.729V2.60627ZM612.412 2.60627V13.2556H582.289V92H569.997V13.2556H539.874V2.60627H612.412ZM662.618 43.5606C668.298 43.5606 672.781 42.4247 676.067 40.1529C679.393 37.881 681.057 33.7835 681.057 27.8605C681.057 21.4911 678.744 17.1503 674.119 14.8378C671.645 13.6207 668.338 13.0122 664.2 13.0122H634.625V43.5606H662.618ZM622.516 2.60627H663.896C670.712 2.60627 676.33 3.60021 680.752 5.58809C689.15 9.40158 693.349 16.4403 693.349 26.7042C693.349 32.0593 692.233 36.4408 690.002 39.8486C687.811 43.2564 684.728 45.9948 680.752 48.0638C684.241 49.4837 686.858 51.3499 688.602 53.6623C690.388 55.9748 691.381 59.7274 691.584 64.9202L692.01 76.9083C692.132 80.3161 692.416 82.8517 692.862 84.515C693.592 87.3549 694.891 89.1805 696.757 89.9918V92H681.909C681.503 91.2292 681.178 90.2352 680.935 89.0182C680.692 87.8011 680.489 85.4481 680.326 81.9592L679.596 67.0501C679.312 61.2082 677.142 57.2932 673.085 55.3054C670.772 54.21 667.142 53.6623 662.192 53.6623H634.625V92H622.516V2.60627ZM754.509 55.3662L740.939 15.8723L726.517 55.3662H754.509ZM734.61 2.60627H748.302L780.737 92H767.471L758.404 65.2245H723.048L713.372 92H700.958L734.61 2.60627ZM814.333 2.60627H831.676L857.356 78.1863L882.854 2.60627H900.015V92H888.513V39.2401C888.513 37.4145 888.554 34.3921 888.635 30.1729C888.716 25.9537 888.757 21.4303 888.757 16.6026L863.259 92H851.271L825.591 16.6026V19.341C825.591 21.5317 825.631 24.8786 825.713 29.3818C825.834 33.8444 825.895 37.1305 825.895 39.2401V92H814.333V2.60627ZM961.844 55.3662L948.274 15.8723L933.852 55.3662H961.844ZM941.945 2.60627H955.637L988.072 92H974.806L965.739 65.2245H930.383L920.707 92H908.293L941.945 2.60627ZM1035.24 0.293843C1043.63 0.293843 1050.9 1.9166 1057.02 5.16212C1065.91 9.82755 1071.34 18.0022 1073.33 29.6861H1061.34C1059.88 23.1545 1056.86 18.4079 1052.27 15.4464C1047.69 12.4442 1041.91 10.9432 1034.93 10.9432C1026.66 10.9432 1019.68 14.0467 1014 20.2538C1008.36 26.4608 1005.54 35.7106 1005.54 48.003C1005.54 58.632 1007.87 67.2935 1012.54 73.9874C1017.2 80.6407 1024.81 83.9673 1035.36 83.9673C1043.43 83.9673 1050.1 81.6346 1055.38 76.9692C1060.69 72.2632 1063.41 64.6768 1063.53 54.21H1035.54V44.1692H1074.79V92H1067L1064.08 80.4987C1059.98 85.0019 1056.35 88.1257 1053.19 89.8701C1047.87 92.8722 1041.12 94.3733 1032.92 94.3733C1022.34 94.3733 1013.23 90.9452 1005.6 84.0891C997.284 75.4884 993.125 63.6829 993.125 48.6723C993.125 33.7024 997.182 21.7954 1005.3 12.9514C1013 4.51302 1022.98 0.293843 1035.24 0.293843ZM1136.99 55.3662L1123.41 15.8723L1108.99 55.3662H1136.99ZM1117.09 2.60627H1130.78L1163.21 92H1149.95L1140.88 65.2245H1105.52L1095.85 92H1083.43L1117.09 2.60627ZM1165.1 81.9592L1219.93 13.2556H1169.12V2.60627H1235.51V13.0122L1180.38 81.3506H1235.51V92H1165.1V81.9592ZM1248.17 2.60627H1260.4V92H1248.17V2.60627ZM1277.62 2.60627H1291.93L1337.08 75.0219V2.60627H1348.58V92H1335.01L1289.19 19.6452V92H1277.62V2.60627ZM1366.35 2.60627H1431.53V13.5599H1378.16V40.7005H1427.51V51.0456H1378.16V81.3506H1432.44V92H1366.35V2.60627Z" fill="white"/>
</svg>
